<svg width="74" height="47" viewBox="0 0 74 47" fill="none" xmlns="http://www.w3.org/2000/svg">
<g clip-path="url(#clip0_2884_985)">
<path d="M16.94 46.9997L3.08707 43.2248L0 9.23633H33.9216L30.8312 43.2194L16.94 46.9997Z" fill="#264DE4"/>
<path d="M28.1857 41.0557L30.8266 12.0156H16.9609V44.1105L28.1857 41.0557Z" fill="#2965F1"/>
<path d="M7.07715 24.6211L7.45776 28.7896H16.9609V24.6211H7.07715Z" fill="#EBEBEB"/>
<path d="M6.3125 16.1846L6.69853 20.3532H16.961V16.1846H16.9463H6.3125Z" fill="#EBEBEB"/>
<path d="M16.9608 35.4473L16.9422 35.4522L12.2127 34.1986L11.9104 30.874H9.61224H7.64746L8.24241 37.4192L16.9413 39.7897L16.9608 39.7844V35.4473Z" fill="#EBEBEB"/>
<path d="M7.9834 0H13.1268V2.11133H10.1343V4.22266H13.1268V6.33398H7.9834V0Z" fill="black"/>
<path d="M14.1553 0H19.2987V1.83594H16.3061V2.20312H19.2987V6.42578H14.1553V4.49805H17.1478V4.13086H14.1553V0Z" fill="black"/>
<path d="M20.3271 0H25.4705V1.83594H22.478V2.20312H25.4705V6.42578H20.3271V4.49805H23.3197V4.13086H20.3271V0Z" fill="black"/>
<path d="M26.8175 24.6218L27.5841 16.1846H16.9463V20.3532H22.9302L22.5438 24.6218H16.9463V28.7903H22.1755L21.6826 34.1966L16.9463 35.4515V39.7883L25.6521 37.4199L25.716 36.7156L26.7139 25.7412L26.8175 24.6218Z" fill="white"/>
<path d="M73.9997 9.23633L70.9093 43.2194L57.0181 46.9997L43.1652 43.2248L40.0781 9.23633H73.9997Z" fill="#E44D26"/>
<path d="M57.0391 44.1105L68.2638 41.0557L70.9047 12.0156H57.0391V44.1105Z" fill="#F16529"/>
<path d="M51.0317 20.3532H57.0391V16.1846H57.0245H46.3906L46.4923 17.3029L47.536 28.7903H57.0391V24.6218H51.4197L51.0317 20.3532Z" fill="#EBEBEB"/>
<path d="M51.9885 30.874H49.6904H47.7256L48.3205 37.4192L57.0194 39.7897L57.039 39.7844V35.4473L57.0204 35.4522L52.2909 34.1986L51.9885 30.874Z" fill="#EBEBEB"/>
<path d="M43.2344 0H45.3925V2.09297H47.3666V0H49.5248V6.33802H47.3667V4.21568H45.3925V6.33802H43.2345L43.2344 0Z" fill="black"/>
<path d="M52.3628 2.10178H50.4629V0H56.4218V2.10178H54.521V6.33802H52.3629L52.3628 2.10178Z" fill="black"/>
<path d="M57.3672 0H59.6175L61.0017 2.22699L62.3845 0H64.6357V6.33802H62.4865V3.19655L61.0017 5.45007H60.9646L59.4788 3.19655V6.33802H57.3672V0Z" fill="black"/>
<path d="M65.71 0H67.8687V4.24304H70.9036V6.33802H65.71V0Z" fill="black"/>
<path d="M57.0244 28.7896H62.2537L61.7607 34.1959L57.0244 35.4507V39.7876L65.7302 37.4191L65.7941 36.7149L66.792 25.7405L66.8956 24.6211H65.7513H57.0244V28.7896Z" fill="white"/>
<path d="M57.0244 20.343V20.3532H67.2684H67.282L67.3672 19.4162L67.5607 17.3029L67.6623 16.1846H57.0244V18.7736V20.343Z" fill="white"/>
</g>
<defs>
<clipPath id="clip0_2884_985">
<rect width="74" height="47" fill="white"/>
</clipPath>
</defs>
</svg>
