<svg width="50" height="50" viewBox="0 0 50 50" fill="none" xmlns="http://www.w3.org/2000/svg">
<path d="M33.0254 18.7104H23.4671V0H33.0254C38.1837 0 42.3796 4.19583 42.3796 9.35417C42.3796 14.5125 38.1837 18.7104 33.0254 18.7104ZM26.5316 15.6458H33.0254C36.4941 15.6458 39.315 12.8229 39.315 9.35625C39.315 5.88958 36.4921 3.06667 33.0254 3.06667H26.5316V15.6458ZM26.5316 18.7104H16.9754C11.8171 18.7104 7.62122 14.5146 7.62122 9.35625C7.62122 4.19792 11.8171 0 16.9754 0H26.5337V18.7104H26.5316ZM16.9754 3.06458C13.5066 3.06458 10.6858 5.8875 10.6858 9.35417C10.6858 12.8208 13.5066 15.6458 16.9754 15.6458H23.4691V3.06458H16.9754ZM26.5316 34.3542H16.9754C11.8171 34.3542 7.62122 30.1583 7.62122 25C7.62122 19.8417 11.8171 15.6458 16.9754 15.6458H26.5337V34.3542H26.5316ZM16.9754 18.7104C13.5066 18.7104 10.6858 21.5333 10.6858 25C10.6858 28.4667 13.5087 31.2896 16.9754 31.2896H23.4691V18.7104H16.9754ZM17.0254 50C11.84 50 7.61914 45.8042 7.61914 40.6458C7.61914 35.4875 11.815 31.2917 16.9733 31.2917H26.5316V40.5437C26.5316 45.7583 22.2671 50 17.0254 50ZM16.9754 34.3542C15.308 34.3564 13.7095 35.0197 12.5304 36.1988C11.3514 37.3778 10.688 38.9763 10.6858 40.6438C10.6858 44.1125 13.5296 46.9333 17.0275 46.9333C20.5796 46.9333 23.4712 44.0667 23.4712 40.5417V34.3542H16.9754ZM33.0254 34.3542H32.8212C27.6629 34.3542 23.4671 30.1583 23.4671 25C23.4671 19.8417 27.6629 15.6458 32.8212 15.6458H33.0254C38.1837 15.6458 42.3796 19.8417 42.3796 25C42.3796 30.1583 38.1837 34.3542 33.0254 34.3542ZM32.8233 18.7104C29.3546 18.7104 26.5337 21.5333 26.5337 25C26.5337 28.4667 29.3566 31.2896 32.8233 31.2896H33.0275C36.4962 31.2896 39.3171 28.4667 39.3171 25C39.3171 21.5333 36.4921 18.7104 33.0254 18.7104H32.8233Z" fill="black"/>
</svg>
