<svg width="50" height="50" viewBox="0 0 50 50" fill="none" xmlns="http://www.w3.org/2000/svg">
<g clip-path="url(#clip0_2884_974)">
<path d="M38.2812 0H11.7188C5.24666 0 0 5.24666 0 11.7188V38.2812C0 44.7533 5.24666 50 11.7188 50H38.2812C44.7533 50 50 44.7533 50 38.2812V11.7188C50 5.24666 44.7533 0 38.2812 0Z" fill="#242938"/>
<mask id="mask0_2884_974" style="mask-type:luminance" maskUnits="userSpaceOnUse" x="11" y="5" width="27" height="40">
<path d="M37.9609 5.46875H11.9141V44.5312H37.9609V5.46875Z" fill="white"/>
</mask>
<g mask="url(#mask0_2884_974)">
<path d="M18.4274 44.5316C22.0212 44.5316 24.9378 41.615 24.9378 38.0213V31.5107H18.4274C14.8337 31.5107 11.917 34.4275 11.917 38.0213C11.917 41.615 14.8337 44.5316 18.4274 44.5316Z" fill="#0ACF83"/>
<path d="M11.917 24.9997C11.917 21.4059 14.8337 18.4893 18.4274 18.4893H24.9378V31.51H18.4274C14.8337 31.51 11.917 28.5934 11.917 24.9997Z" fill="#A259FF"/>
<path d="M11.917 11.9792C11.917 8.38541 14.8337 5.46875 18.4274 5.46875H24.9378V18.4896H18.4274C14.8337 18.4896 11.917 15.5729 11.917 11.9792Z" fill="#F24E1E"/>
<path d="M24.9375 5.46875H31.4479C35.0416 5.46875 37.9584 8.38541 37.9584 11.9792C37.9584 15.5729 35.0416 18.4896 31.4479 18.4896H24.9375V5.46875Z" fill="#FF7262"/>
<path d="M37.9584 24.9997C37.9584 28.5934 35.0416 31.51 31.4479 31.51C27.8541 31.51 24.9375 28.5934 24.9375 24.9997C24.9375 21.4059 27.8541 18.4893 31.4479 18.4893C35.0416 18.4893 37.9584 21.4059 37.9584 24.9997Z" fill="#1ABCFE"/>
</g>
</g>
<defs>
<clipPath id="clip0_2884_974">
<rect width="50" height="50" fill="white"/>
</clipPath>
</defs>
</svg>
