<svg width="50" height="50" viewBox="0 0 50 50" fill="none" xmlns="http://www.w3.org/2000/svg">
<g clip-path="url(#clip0_2884_1025)">
<path d="M8.86719 0.625H41.1719C46.0547 0.625 50.0391 4.57031 50.0391 9.49219V40.5469C50.0391 45.4297 46.0938 49.4141 41.1719 49.4141H8.86719C3.94531 49.375 0 45.4297 0 40.5078V9.49219C0 4.57031 3.94531 0.625 8.86719 0.625Z" fill="#330000"/>
<path d="M24.1792 29.8047H16.4058L14.8433 34.6875C14.8042 34.8828 14.648 35 14.4527 34.9609H10.5464C10.312 34.9609 10.273 34.8438 10.312 34.5703L17.0308 15.2734C17.1089 15.0781 17.148 14.8437 17.2261 14.5703C17.3042 14.1406 17.3433 13.6719 17.3433 13.2031C17.3042 13.0859 17.4214 13.0078 17.4995 12.9688H22.8901C23.0464 12.9688 23.1245 13.0469 23.1636 13.125L30.7808 34.5703C30.8589 34.8047 30.7808 34.9219 30.5855 34.9219H26.2105C26.0542 34.9609 25.937 34.8438 25.8589 34.6875L24.1792 29.8047ZM17.6167 25.5469H22.8901C22.773 25.1172 22.6167 24.5703 22.4214 24.0625C22.2261 23.5156 22.0308 22.8906 21.8745 22.2656C21.6792 21.6016 21.4839 20.9766 21.2886 20.3516C21.0933 19.6875 20.898 19.1016 20.7417 18.5156C20.5855 17.9297 20.4292 17.3828 20.273 16.875H20.2339C20.0386 17.7734 19.8042 18.6719 19.5308 19.5703C19.2183 20.5859 18.9058 21.6016 18.5542 22.6563C18.2417 23.7109 17.9292 24.6875 17.6167 25.5469ZM35.4292 16.6797C34.7261 16.7188 34.062 16.4453 33.5933 15.9375C33.1245 15.4297 32.8511 14.7266 32.8901 14.0234C32.8511 13.3203 33.1245 12.6563 33.6323 12.1875C34.1401 11.7188 34.8042 11.4453 35.4683 11.4453C36.2886 11.4453 36.9136 11.6797 37.3823 12.1875C37.8511 12.6953 38.0855 13.3594 38.0855 14.0234C38.1245 14.7266 37.8511 15.4297 37.3433 15.9375C36.8355 16.4453 36.1323 16.7188 35.4292 16.6797ZM33.0855 34.7656V18.7109C33.0855 18.5156 33.1636 18.4375 33.3589 18.4375H37.4995C37.6948 18.4375 37.773 18.5547 37.773 18.7109V34.7656C37.773 35 37.6948 35.1172 37.4995 35.1172H33.398C33.2027 35.0781 33.0855 34.9609 33.0855 34.7656Z" fill="#FF9A00"/>
</g>
<defs>
<clipPath id="clip0_2884_1025">
<rect width="50" height="50" fill="white"/>
</clipPath>
</defs>
</svg>
