<svg width="50" height="48" viewBox="0 0 50 48" fill="none" xmlns="http://www.w3.org/2000/svg">
<g clip-path="url(#clip0_2884_1017)">
<mask id="mask0_2884_1017" style="mask-type:luminance" maskUnits="userSpaceOnUse" x="0" y="0" width="50" height="48">
<path d="M49.4285 0H0V48H49.4285V0Z" fill="white"/>
</mask>
<g mask="url(#mask0_2884_1017)">
<path d="M40.6755 0H8.75295C3.91883 0 0 3.90316 0 8.71794V39.2821C0 44.0968 3.91883 48 8.75295 48H40.6755C45.5096 48 49.4285 44.0968 49.4285 39.2821V8.71794C49.4285 3.90316 45.5096 0 40.6755 0Z" fill="#49021F"/>
<path d="M17.9508 12.5576V33.5949C17.9508 33.8153 17.8513 33.9253 17.6524 33.9252H13.6402C13.4631 33.9252 13.3747 33.8151 13.375 33.5949V12.5576C13.375 12.3816 13.4745 12.2935 13.6734 12.2933H17.6855C17.7216 12.2882 17.7583 12.2916 17.7928 12.3031C17.8273 12.3145 17.8587 12.3338 17.8844 12.3595C17.9102 12.3851 17.9296 12.4163 17.9411 12.4507C17.9526 12.4851 17.9559 12.5217 17.9508 12.5576Z" fill="#FF3366"/>
<path d="M29.8216 34.2551C28.2954 34.2782 26.7832 33.9623 25.3949 33.3303C24.1017 32.7342 23.0206 31.761 22.2947 30.5396C21.5429 29.296 21.167 27.7383 21.1673 25.8665C21.1548 24.3507 21.5437 22.8585 22.2947 21.5402C23.0682 20.1972 24.2059 19.0985 25.5773 18.3697C27.014 17.577 28.7492 17.1807 30.7831 17.1807C30.8935 17.1807 31.0372 17.1863 31.2142 17.1973C31.3908 17.2086 31.6008 17.2251 31.8442 17.2468V10.7408C31.8442 10.587 31.9105 10.5096 32.0432 10.5096H36.2211C36.2481 10.5057 36.2757 10.5082 36.3016 10.5168C36.3275 10.5254 36.351 10.5399 36.3703 10.5591C36.3896 10.5783 36.4042 10.6017 36.4128 10.6275C36.4214 10.6533 36.4239 10.6808 36.4201 10.7077V30.2259C36.4201 30.6005 36.4366 31.0079 36.4698 31.4478C36.5029 31.8885 36.5306 32.2848 36.5527 32.6367C36.5568 32.7053 36.5399 32.7736 36.5045 32.8325C36.469 32.8914 36.4164 32.9383 36.3537 32.967C35.2759 33.4148 34.1532 33.7469 33.0048 33.9578C31.9547 34.1508 30.8894 34.2503 29.8216 34.2551ZM31.8442 30.1598V21.1439C31.6649 21.0955 31.482 21.0623 31.2971 21.0447C31.0713 21.0221 30.8443 21.0111 30.6173 21.0117C29.8127 21.0038 29.0175 21.1848 28.2963 21.5402C27.5938 21.8879 26.994 22.4114 26.5555 23.0593C26.1022 23.7198 25.8756 24.5895 25.8757 25.6683C25.8596 26.3883 25.9776 27.1049 26.2239 27.782C26.4243 28.3275 26.741 28.8233 27.1523 29.2351C27.5461 29.614 28.0228 29.8967 28.5449 30.0608C29.0964 30.2387 29.6729 30.3278 30.2526 30.3249C30.5619 30.3249 30.8493 30.314 31.1147 30.2919C31.3618 30.2734 31.6063 30.2291 31.8442 30.1598Z" fill="#FF3366"/>
</g>
</g>
<defs>
<clipPath id="clip0_2884_1017">
<rect width="50" height="48" fill="white"/>
</clipPath>
</defs>
</svg>
