<svg width="90" height="73" viewBox="0 0 90 73" fill="none" xmlns="http://www.w3.org/2000/svg">
<path d="M47.4806 58.9904C47.4315 58.9511 47.3578 58.9659 47.3332 59.0248C46.9452 59.9335 44.7052 66.1277 54.0235 69.689C65.1691 73.9478 69.5802 72.6314 80.9321 68.4266C92.0188 64.3201 89.8722 52.9976 89.7641 52.4671C89.7641 52.4524 89.7592 52.4426 89.7543 52.4278C89.602 52.0398 87.0477 45.6049 80.9321 41.9355C74.8165 38.2662 61.5931 32.686 61.5931 32.686C61.5931 32.686 48.5612 28.0588 51.9211 19.2317C55.2859 10.4046 67.4778 12.507 67.4778 12.507C67.4778 12.507 79.0803 13.7055 81.6002 27.8132C81.6198 27.9261 81.7868 27.9163 81.7918 27.7984L82.0128 12.5659C82.0128 12.4824 81.9146 12.4333 81.8556 12.4922C81.3791 12.9245 79.5764 13.7694 73.1464 12.2908C72.9892 12.2663 51.7296 9.17657 45.9529 21.5404C40.6675 32.853 53.1246 40.1426 55.3744 41.3412C55.5807 41.4541 55.7968 41.5426 56.0178 41.6162C58.8276 42.525 80.2101 49.7261 81.7819 58.7595C83.4619 68.4315 75.8972 69.689 75.8972 69.689C75.8972 69.689 65.6014 72.0665 54.2348 58.3715C53.7878 57.8312 52.9281 57.8508 52.545 58.4403C52.039 59.2262 51.2727 59.8893 50.3443 58.9609C48.6644 57.281 49.9219 60.3658 47.3971 59.9434C45.3585 59.6044 51.145 62.8071 53.4488 64.0548C53.552 64.1088 53.6453 63.9664 53.552 63.8927L47.4904 58.9904H47.4806Z" fill="black"/>
<path d="M0.948037 0.570722C0.88418 0.56581 0.879267 0.467567 0.948037 0.462655C6.03209 0.153191 36.7476 -1.45308 43.9537 3.94535C51.8131 9.8399 49.8482 17.6993 49.8482 17.6993C49.8482 17.6993 47.8834 30.4708 29.2222 32.9269C29.2222 32.9269 29.2173 32.9269 29.2124 32.9269H16.1118L15.9546 32.4357C15.9546 32.4357 29.7085 33.9093 36.0943 27.5235C42.48 21.1378 40.5152 13.2784 40.5152 13.2784C40.5152 13.2784 40.0289 2.56996 26.943 1.01773C26.8251 1.00299 26.7023 0.998074 26.5795 0.998074H16.4998C16.4704 0.998074 16.4458 1.02264 16.4458 1.05212L16.3328 32.8729C16.3328 32.9023 16.3082 32.9269 16.2788 32.9269H7.16679C7.13732 32.9269 7.11275 32.9023 7.11275 32.8729V6.40633C7.11275 6.40633 7.11275 6.40632 7.11275 6.40141C7.12749 6.30808 7.96746 1.32719 0.952947 0.570722H0.948037Z" fill="black"/>
<path d="M7.03909 32.4404H16.2837L16.2935 56.5098C16.2935 56.5098 16.0725 61.422 20.1888 62.4044C24.5606 63.4458 24.0694 63.3868 24.0694 63.3868H1.52588e-05C1.52588e-05 63.3868 6.80822 63.3868 7.03418 56.5098V32.4404H7.03909Z" fill="black"/>
<path d="M44.9311 46.1948C44.9311 46.1948 36.276 33.8359 29.3057 32.8928L16.7061 32.9321H16.932C16.932 32.9321 23.3178 32.4409 24.7914 34.8969C26.2651 37.353 34.6157 50.1245 34.6157 50.1245C34.6157 50.1245 46.4048 67.3169 51.7688 68.3681C57.1329 69.4193 57.3392 61.7171 57.3392 61.7171C57.3392 61.7171 48.3696 52.5756 44.9311 46.1899V46.1948Z" fill="black"/>
<path d="M35.7604 40.7908C42.7552 51.5189 54.2152 66.6678 67.0064 70.1161C69.0105 70.6417 71.1129 70.8284 73.1957 70.6123C71.1276 70.9365 69.0007 70.7989 66.9523 70.347C53.9107 67.1885 42.2886 51.9167 35.7604 40.7908Z" fill="white"/>
<path d="M83.7911 60.1939C84.3806 56.5197 82.9413 52.7914 80.5 50.0897C75.4454 44.5095 67.6007 43.1096 61.1855 39.5777C57.7421 37.9715 55.1239 35.1568 52.5647 32.4404C54.004 33.6243 55.3646 34.9112 56.8186 36.0508C58.253 37.2101 59.8543 38.109 61.5294 38.8851C64.4324 40.236 68.7846 41.9699 71.7908 43.2225C78.6874 45.9193 85.751 52.0398 83.7911 60.1939Z" fill="white"/>
<path d="M50.5555 16.1176C47.4904 19.4234 44.9852 23.4808 44.6855 28.0638C44.6855 28.5256 44.6757 29.0266 44.6561 29.4884C44.5922 29.1789 44.5333 28.8645 44.4792 28.5452C43.7719 23.697 46.6504 18.829 50.5555 16.1176Z" fill="white"/>
</svg>
