<svg width="50" height="50" viewBox="0 0 50 50" fill="none" xmlns="http://www.w3.org/2000/svg">
<g clip-path="url(#clip0_2884_1008)">
<path d="M38.2812 0H11.7188C5.24666 0 0 5.24666 0 11.7188V38.2812C0 44.7533 5.24666 50 11.7188 50H38.2812C44.7533 50 50 44.7533 50 38.2812V11.7188C50 5.24666 44.7533 0 38.2812 0Z" fill="#001E36"/>
<path d="M11.25 34.7731V13.3356C11.25 13.1898 11.3125 13.1064 11.4583 13.1064C11.8125 13.1064 12.1458 13.1064 12.625 13.0856C13.125 13.0648 13.6458 13.0648 14.2083 13.0439C14.7708 13.0231 15.375 13.0231 16.0208 13.0023C16.6667 12.9814 17.2917 12.9814 17.9167 12.9814C19.625 12.9814 21.0416 13.1898 22.2084 13.6273C23.25 13.9814 24.2084 14.5648 25 15.3356C25.6666 16.0023 26.1875 16.8148 26.5209 17.7106C26.8334 18.5856 27 19.4814 27 20.419C27 22.2106 26.5834 23.6897 25.75 24.8565C24.9166 26.0231 23.75 26.8981 22.3959 27.3981C20.9791 27.919 19.4167 28.1065 17.7083 28.1065C17.2083 28.1065 16.875 28.1065 16.6667 28.0856C16.4583 28.0647 16.1667 28.0647 15.7708 28.0647V34.7522C15.7917 34.8981 15.6875 35.0231 15.5417 35.044C15.5208 35.044 15.5 35.044 15.4583 35.044H11.5C11.3333 35.044 11.25 34.9606 11.25 34.7731ZM15.7917 17.1273V24.1272C16.0833 24.1481 16.3542 24.169 16.6042 24.169H17.7083C18.5208 24.169 19.3333 24.044 20.1041 23.794C20.7709 23.6065 21.3541 23.2106 21.8125 22.6897C22.25 22.169 22.4584 21.4606 22.4584 20.544C22.4791 19.8981 22.3125 19.2523 21.9791 18.6898C21.625 18.1481 21.125 17.7314 20.5209 17.5023C19.75 17.1898 18.9167 17.0648 18.0625 17.0856C17.5208 17.0856 17.0417 17.0856 16.6458 17.1064C16.2292 17.0856 15.9375 17.1064 15.7917 17.1273Z" fill="#31A8FF"/>
<path d="M40.0001 22.8569C39.3751 22.5235 38.7085 22.2944 38.0001 22.1485C37.2292 21.9819 36.4585 21.8776 35.6667 21.8776C35.2501 21.8569 34.8126 21.9194 34.4167 22.0235C34.146 22.086 33.9167 22.2319 33.771 22.4401C33.6667 22.6069 33.6042 22.8151 33.6042 23.0026C33.6042 23.1901 33.6876 23.3776 33.8126 23.5444C34.0001 23.7735 34.2501 23.961 34.521 24.1069C35.0001 24.3569 35.5001 24.586 36.0001 24.7944C37.1251 25.1694 38.2085 25.6901 39.2085 26.3151C39.896 26.7526 40.4585 27.336 40.8542 28.0444C41.1876 28.711 41.3542 29.4401 41.3335 30.1901C41.3542 31.1694 41.0626 32.1485 40.521 32.961C39.9376 33.7944 39.1251 34.4401 38.1876 34.8151C37.1667 35.2526 35.9167 35.4819 34.4167 35.4819C33.4585 35.4819 32.521 35.3985 31.5835 35.211C30.8542 35.086 30.1251 34.8569 29.4585 34.5444C29.3126 34.461 29.2085 34.3151 29.2292 34.1485V30.5235C29.2292 30.461 29.2501 30.3776 29.3126 30.336C29.3751 30.2944 29.4376 30.3151 29.5001 30.3569C30.3126 30.836 31.1667 31.1694 32.0835 31.3776C32.8751 31.586 33.7085 31.6901 34.5417 31.6901C35.3335 31.6901 35.896 31.586 36.271 31.3985C36.6042 31.2526 36.8335 30.8985 36.8335 30.5235C36.8335 30.2319 36.6667 29.961 36.3335 29.6901C36.0001 29.4194 35.3126 29.1069 34.2917 28.711C33.2292 28.336 32.2501 27.836 31.3335 27.211C30.6876 26.7526 30.146 26.1485 29.7501 25.4401C29.4167 24.7735 29.2501 24.0444 29.271 23.3151C29.271 22.4194 29.521 21.5651 29.9792 20.7944C30.5001 19.961 31.271 19.2943 32.1667 18.8776C33.146 18.3776 34.3751 18.1484 35.8542 18.1484C36.7085 18.1484 37.5835 18.2109 38.4376 18.3359C39.0626 18.4193 39.6667 18.5859 40.2292 18.8151C40.3126 18.8359 40.396 18.9193 40.4376 19.0026C40.4585 19.0859 40.4792 19.1693 40.4792 19.2526V22.6485C40.4792 22.7319 40.4376 22.8151 40.3751 22.8569C40.1876 22.8985 40.0835 22.8985 40.0001 22.8569Z" fill="#31A8FF"/>
</g>
<defs>
<clipPath id="clip0_2884_1008">
<rect width="50" height="50" fill="white"/>
</clipPath>
</defs>
</svg>
